<svg xmlns="http://www.w3.org/2000/svg" viewBox="0 0 67.45 67.45"><defs><style>.cls-1{opacity:0.6;}.cls-2{fill:#020303;}.cls-3{fill:none;stroke:#fff;stroke-miterlimit:10;stroke-width:1.8px;}.cls-4{fill:#fff;}</style></defs><title>Asset 9</title><g id="Layer_2" data-name="Layer 2"><g id="Layer_1-2" data-name="Layer 1"><g class="cls-1"><path class="cls-2" d="M67.45,33.72A33.72,33.72,0,1,1,33.72,0,33.72,33.72,0,0,1,67.45,33.72"/><path class="cls-3" d="M23.5,39.55"/><path class="cls-3" d="M42.71,42.93"/><path class="cls-3" d="M42.93,19.08"/></g><path class="cls-4" d="M42.82,22.29A3.83,3.83,0,0,1,39,18.45a3.84,3.84,0,1,1,7.69,0A3.83,3.83,0,0,1,42.82,22.29Z"/><polygon class="cls-4" points="23.25 38.42 26.14 35.58 24.35 33.75 21.45 36.59 18.75 33.83 16.98 35.57 19.68 38.33 16.79 41.16 18.58 42.99 21.48 40.16 24.18 42.92 25.95 41.18 23.25 38.42"/><path class="cls-4" d="M32.65,52.89a12.42,12.42,0,0,1-3.17-.41l.9-3.39A9,9,0,0,0,35.2,49l1,3.36A12.39,12.39,0,0,1,32.65,52.89ZM25.78,50.8a13,13,0,0,1-3.86-4.06c.26-.29.51-.53.51-.53l2.18-2a8.88,8.88,0,0,0,3.13,3.67Zm14.09-.23-2-2.85a8.88,8.88,0,0,0,3-3.77l3.23,1.36A12.39,12.39,0,0,1,39.86,50.57ZM45,41.36l-3.5-.24c0-.2,0-.39,0-.59V35.39H45v5.13Q45,40.94,45,41.36Zm0-9.47H41.51V26H45Z"/></g></g></svg>