<svg xmlns="http://www.w3.org/2000/svg" viewBox="0 0 67.14 67.23"><defs><style>.cls-1{opacity:0.6;}.cls-2{fill:#020303;}.cls-3{fill:#fff;}</style></defs><title>Asset 6</title><g id="Layer_2" data-name="Layer 2"><g id="Layer_1-2" data-name="Layer 1"><g class="cls-1"><path class="cls-2" d="M67.14,33.61A33.57,33.57,0,1,1,33.57,0,33.59,33.59,0,0,1,67.14,33.61"/><path class="cls-3" d="M44,22.06a4,4,0,1,1-4-4,4,4,0,0,1,4,4"/><path class="cls-3" d="M47,30.27a3.09,3.09,0,0,0-3-2.34H37.84a3.09,3.09,0,0,0-3,2.27l-2.38,9.9H35.9l1.79,10s9.6,0,9.92,0Z"/><path class="cls-3" d="M30.71,17.89a4,4,0,1,1-4-4,4,4,0,0,1,4,4"/><path class="cls-3" d="M29,23.87h-4.4a4.45,4.45,0,0,0-4.44,4.44l-.32,10.45-.29,11.14,10.54,0,1-11.11h2.75l-.24-10.29A4.61,4.61,0,0,0,29,23.87"/><path class="cls-2" d="M29.79,33.91A3.41,3.41,0,1,0,31.45,31a3.4,3.4,0,0,0-1.67,2.93"/><path class="cls-2" d="M38.6,50.8l-.19-8.48a3.73,3.73,0,0,0-3.52-3.88H31.51a3.6,3.6,0,0,0-3.4,3.75l-.24,8.62Z"/></g></g></g></svg>