<svg xmlns="http://www.w3.org/2000/svg" viewBox="0 0 66.35 66.35"><defs><style>.cls-1{opacity:0.6;}.cls-2{fill:#020303;}.cls-3{fill:#fff;}</style></defs><title>Asset 4</title><g id="Layer_2" data-name="Layer 2"><g id="Layer_1-2" data-name="Layer 1"><g class="cls-1"><path class="cls-2" d="M66.35,33.36A33.17,33.17,0,1,1,33.36,0a33.17,33.17,0,0,1,33,33.36"/><path class="cls-3" d="M49.85,24l-7,6.59H17.09l-5.58,3.15A1.77,1.77,0,0,0,12.3,37H30.54l5.66,5.31h5.38L38,37H44.7a3.21,3.21,0,0,0,2.29-1h0l.09-.14a3.24,3.24,0,0,0,.46-.68L55.23,24Z"/><polygon class="cls-3" points="39.15 28.96 41.58 25.39 36.2 25.39 32.39 28.96 39.15 28.96"/><path class="cls-3" d="M54.95,28.59H51.28a.8.8,0,1,1,0-1.59h3.67a.8.8,0,1,1,0,1.59"/></g></g></g></svg>