<svg xmlns="http://www.w3.org/2000/svg" viewBox="0 0 87.88 77.7"><defs><style>.cls-1{fill:#696a68;}.cls-1,.cls-2{stroke:#696a68;stroke-miterlimit:10;stroke-width:2.16px;}.cls-2{fill:none;}</style></defs><title>Asset 17</title><g id="Layer_2" data-name="Layer 2"><g id="Layer_1-2" data-name="Layer 1"><rect class="cls-1" x="1.08" y="58.52" width="10.82" height="18.1" rx="2.18" ry="2.18"/><rect class="cls-2" x="46.13" y="25.56" width="10.82" height="51.02" rx="2.25" ry="2.25"/><rect class="cls-2" x="61.2" y="12.44" width="10.82" height="64.15" rx="2.25" ry="2.25"/><rect class="cls-2" x="75.98" y="1.08" width="10.82" height="75.51" rx="2.25" ry="2.25"/><rect class="cls-2" x="16.05" y="47.21" width="10.82" height="29.38" rx="2.41" ry="2.41"/><rect class="cls-2" x="31.07" y="36.37" width="10.82" height="40.2" rx="2.5" ry="2.5"/><line class="cls-2" x1="16.68" y1="76.57" x2="27.15" y2="68.22"/><line class="cls-2" x1="15.96" y1="70.53" x2="27.15" y2="61.61"/><line class="cls-2" x1="15.96" y1="64.21" x2="27.15" y2="55.29"/><line class="cls-2" x1="15.96" y1="57.89" x2="27.15" y2="48.96"/><line class="cls-2" x1="31.42" y1="76.57" x2="41.89" y2="68.22"/><line class="cls-2" x1="30.7" y1="70.53" x2="41.89" y2="61.61"/><line class="cls-2" x1="30.7" y1="64.21" x2="41.89" y2="55.29"/><line class="cls-2" x1="30.7" y1="57.89" x2="41.89" y2="48.96"/><line class="cls-2" x1="30.7" y1="52.14" x2="41.89" y2="43.21"/><line class="cls-2" x1="30.7" y1="45.82" x2="41.89" y2="36.89"/></g></g></svg>